<svg width="214" height="41" viewBox="0 0 214 41" fill="none" xmlns="http://www.w3.org/2000/svg">
<g clip-path="url(#clip0_0_23879)">
<path d="M22.1024 39.8916L14.2875 27.9233H8.231V39.8916H0V1.10841H16.548C18.3069 1.10245 20.0482 1.46237 21.6628 2.16565C23.2382 2.8422 24.6741 3.80976 25.8965 5.01842C27.1153 6.23355 28.0945 7.67055 28.7821 9.25328C29.5042 10.9115 29.8697 12.705 29.8547 14.5159C29.8826 16.97 29.2179 19.3815 27.9381 21.4696C26.7064 23.5071 24.9612 25.1795 22.8799 26.3168L31.6716 39.9014L22.1024 39.8916ZM15.6688 20.1682C16.4155 20.1728 17.1551 20.022 17.8413 19.7253C18.5026 19.4412 19.1006 19.0261 19.5997 18.5046C20.0992 17.9824 20.4998 17.3726 20.7817 16.7051C21.073 16.0126 21.2231 15.2681 21.2231 14.5159C21.2231 13.7636 21.073 13.0191 20.7817 12.3266C20.4989 11.6596 20.0984 11.05 19.5997 10.5271C19.0898 9.9965 18.4788 9.57526 17.8032 9.2887C17.1277 9.00213 16.4017 8.85615 15.6688 8.85953H8.24467V20.1623L15.6688 20.1682Z" fill="#6527BE"/>
<path d="M67.4032 18.9496C67.4398 19.2065 67.4581 19.4657 67.4579 19.7253V20.499C67.4921 25.8718 65.452 31.0475 61.7687 34.9322C59.9802 36.8072 57.846 38.3125 55.4855 39.3639C53.0102 40.4664 50.33 41.0242 47.6238 41C44.9117 41.0154 42.2256 40.4678 39.7327 39.3915C34.8428 37.3194 30.9406 33.4175 28.8466 28.506C27.7591 25.9798 27.2068 23.2526 27.225 20.499C27.2083 17.7756 27.7511 15.0783 28.8193 12.5766C29.8493 10.1518 31.3226 7.94388 33.1624 6.06778C35.0193 4.18435 37.2189 2.67903 39.6409 1.63407C42.1578 0.539556 44.8728 -0.0168659 47.614 -2.55863e-05C50.8702 -2.55863e-05 53.7929 0.738926 56.3823 2.21683C58.9716 3.69473 61.2164 5.76327 63.1167 8.42245L56.4096 13.0215C55.9483 12.3279 55.4251 11.6782 54.8466 11.0803C54.2303 10.4443 53.547 9.87792 52.8089 9.39109C52.0485 8.88847 51.2262 8.48805 50.3629 8.19997C49.4763 7.90378 48.548 7.75419 47.614 7.757C45.9969 7.74997 44.399 8.10997 42.9388 8.8103C41.4954 9.49774 40.191 10.449 39.0919 11.6158C36.8389 14.0198 35.5838 17.2012 35.5838 20.5078C35.5838 23.8145 36.8389 26.9959 39.0919 29.3999C40.1917 30.5639 41.496 31.5124 42.9388 32.1975C44.3987 32.8987 45.9968 33.2587 47.614 33.2508C49.841 33.2879 52.02 32.5971 53.8249 31.282C55.6066 29.9891 57.0119 28.2385 57.8944 26.2124H47.614L53.2583 20.688L67.4032 18.9496Z" fill="#6527BE"/>
<path d="M103.438 12.5707C103.094 15.6932 103.807 22.1744 100.507 30.0161C99.2802 32.9299 96.3575 35.7059 93.5949 37.5211C91.3396 39.0231 88.7997 40.0374 86.1357 40.4999C80.9306 41.4322 75.5696 40.2961 71.178 37.3302C68.9024 35.808 66.9651 33.8262 65.4888 31.5104C63.9992 29.2387 62.9884 26.683 62.5192 24.0015C62.0629 21.4088 62.0934 18.7529 62.609 16.1716C63.1352 13.5802 64.1528 11.1155 65.606 8.91269C67.1119 6.61542 69.0769 4.66008 71.3754 3.17171C74.1106 1.3788 76.9526 0.394404 79.9014 0.218526C82.8515 0.0452727 92.1003 0.185057 95.4607 0.185057L85.7254 9.42458C84.966 9.07502 84.1825 8.78155 83.3809 8.5465C82.5685 8.30734 81.7299 8.16981 80.8841 8.13699C79.9989 8.10608 79.114 8.20759 78.2583 8.43821C77.3046 8.70047 76.3994 9.11668 75.5778 9.67067C74.2186 10.5533 73.0746 11.7338 72.2311 13.1239C71.396 14.4927 70.8191 16.0052 70.5294 17.5852C69.9462 20.8387 70.6192 24.1938 72.4105 26.9637C74.2018 29.7336 76.9759 31.7088 80.1651 32.485C81.7177 32.8539 83.3246 32.9306 84.9048 32.7114C86.5096 32.4958 88.0455 31.9184 89.3984 31.0222C90.9173 30.0609 92.0998 28.6448 92.7802 26.9724C93.4464 25.3056 93.7534 23.5151 93.6809 21.7197L103.438 12.5707Z" fill="#6527BE"/>
<path d="M110.023 10.7968V0.608339H114.322C114.882 0.603989 115.434 0.752272 115.918 1.03753C116.398 1.31893 116.799 1.72034 117.08 2.20306C117.372 2.70323 117.522 3.27463 117.514 3.85487C117.516 4.40021 117.366 4.93514 117.08 5.3984C116.795 5.86953 116.398 6.26191 115.926 6.5403C115.439 6.8273 114.885 6.97566 114.322 6.96949H111.586V10.7968H110.023ZM111.586 5.45549H114.476C114.741 5.45924 115.001 5.38612 115.226 5.24483C115.451 5.10085 115.631 4.89621 115.746 4.6542C115.875 4.40026 115.942 4.1187 115.941 3.83321C115.95 3.52182 115.87 3.21442 115.709 2.94819C115.549 2.68195 115.315 2.46828 115.037 2.333C114.739 2.18402 114.41 2.10909 114.077 2.11446H111.582L111.586 5.45549ZM116.031 10.7968L113.46 6.19773L115.074 5.8335L117.934 10.8126L116.031 10.7968Z" fill="#6527BE"/>
<path d="M120.062 10.7968V0.608337H126.431V2.12233H121.621V9.28282H126.431V10.7968H120.062ZM120.769 6.32963V4.81564H125.635V6.32963H120.769Z" fill="#6527BE"/>
<path d="M127.874 10.7968L131.781 0.608337H133.37L137.256 10.7968H135.593L133.292 4.65616C133.262 4.58726 133.206 4.42188 133.126 4.16003C133.046 3.89818 132.95 3.6068 132.842 3.28786C132.735 2.96891 132.647 2.6736 132.555 2.40584C132.463 2.13809 132.411 1.9668 132.381 1.89002L132.713 1.87624C132.655 2.03965 132.584 2.24834 132.504 2.50034C132.424 2.75235 132.334 3.0201 132.244 3.30164C132.155 3.58318 132.063 3.84699 131.977 4.08915C131.891 4.33131 131.817 4.54198 131.76 4.70735L129.462 10.7909L127.874 10.7968ZM129.607 8.26889L130.193 6.75489H134.786L135.451 8.26889H129.607Z" fill="#6527BE"/>
<path d="M139.04 10.7968V0.608344H142.996C143.665 0.598972 144.329 0.722748 144.95 0.97257C145.519 1.20603 146.029 1.56376 146.445 2.01996C146.866 2.4892 147.191 3.0388 147.398 3.63634C147.626 4.30091 147.739 5.00033 147.73 5.70357C147.738 6.40868 147.626 7.10993 147.398 7.7767C147.194 8.374 146.872 8.92372 146.452 9.39307C146.04 9.84713 145.532 10.2029 144.966 10.4346C144.341 10.6851 143.673 10.8088 143 10.7988L139.04 10.7968ZM140.603 9.44426L140.56 9.28282H142.928C143.395 9.29184 143.86 9.20822 144.296 9.03672C144.681 8.88083 145.026 8.63921 145.306 8.32993C145.593 8.00343 145.807 7.61878 145.935 7.20181C146.08 6.71823 146.148 6.21459 146.138 5.70947C146.145 5.20356 146.072 4.69976 145.921 4.21713C145.79 3.80029 145.574 3.41589 145.286 3.08902C145.009 2.77418 144.666 2.52592 144.282 2.36253C143.847 2.189 143.382 2.10467 142.914 2.11447H140.513L140.599 1.98453L140.603 9.44426Z" fill="#6527BE"/>
<path d="M114.544 25.423C113.151 25.4357 111.811 24.8912 110.816 23.909C110.336 23.4355 109.956 22.8689 109.699 22.2434C109.433 21.5903 109.3 20.8899 109.308 20.184C109.3 19.4851 109.433 18.7918 109.699 18.1463C109.955 17.526 110.333 16.9642 110.81 16.4945C111.29 16.0218 111.857 15.6485 112.479 15.3959C113.13 15.1297 113.826 14.9959 114.528 15.0022C115.035 15.0015 115.539 15.0751 116.025 15.2207C116.492 15.3579 116.937 15.5635 117.346 15.831C117.722 16.0714 118.053 16.3774 118.322 16.7347L117.312 17.7959C117.043 17.5303 116.745 17.2958 116.423 17.097C116.131 16.9181 115.818 16.7765 115.491 16.6756C115.183 16.58 114.861 16.5309 114.538 16.5299C114.046 16.5246 113.557 16.619 113.102 16.8075C112.671 16.9861 112.278 17.2476 111.946 17.5773C111.61 17.9062 111.344 18.3 111.164 18.735C110.977 19.1946 110.883 19.6873 110.889 20.184C110.887 20.6767 110.985 21.1644 111.178 21.6173C111.367 22.0599 111.639 22.4611 111.981 22.7986C112.321 23.1392 112.723 23.4111 113.165 23.5999C113.614 23.7947 114.098 23.8939 114.587 23.8912C114.95 23.8935 115.311 23.8369 115.656 23.7239C115.978 23.6189 116.281 23.4591 116.55 23.2514C116.799 23.0606 117.006 22.8199 117.158 22.5446C117.301 22.2843 117.376 21.9916 117.375 21.6941V21.4027L117.592 21.5996H114.501V20.0423H118.981C119 20.1505 119.016 20.2529 119.026 20.3553C119.036 20.4577 119.041 20.5522 119.047 20.6467C119.053 20.7412 119.047 20.8278 119.047 20.9164C119.055 21.5427 118.938 22.1642 118.701 22.7434C118.48 23.277 118.153 23.7594 117.74 24.161C117.329 24.5618 116.843 24.8764 116.31 25.0863C115.748 25.3113 115.149 25.4256 114.544 25.423Z" fill="#6527BE"/>
<path d="M121.087 25.2773V15.0888H122.65V23.7633H127.382V25.2773H121.087Z" fill="#6527BE"/>
<path d="M133.681 25.4229C133.004 25.4298 132.333 25.2958 131.71 25.0292C131.117 24.7722 130.582 24.398 130.135 23.9286C129.684 23.4505 129.33 22.8872 129.096 22.2709C128.606 20.922 128.606 19.442 129.096 18.0931C129.33 17.476 129.683 16.9119 130.135 16.4334C130.581 15.964 131.117 15.5904 131.71 15.3349C132.972 14.8098 134.39 14.8098 135.652 15.3349C136.247 15.5911 136.783 15.9677 137.227 16.4413C137.679 16.9242 138.033 17.4922 138.267 18.1128C138.759 19.4511 138.759 20.9228 138.267 22.2611C138.032 22.8802 137.679 23.4468 137.227 23.9286C136.782 24.401 136.246 24.7774 135.652 25.0351C135.029 25.2997 134.358 25.4317 133.681 25.4229ZM133.681 23.8951C134.146 23.9009 134.606 23.8062 135.031 23.6175C135.436 23.4376 135.799 23.1724 136.094 22.8399C136.398 22.4935 136.635 22.0929 136.793 21.6586C137.132 20.7037 137.132 19.6603 136.793 18.7054C136.636 18.271 136.398 17.8704 136.094 17.5242C135.799 17.1888 135.437 16.9203 135.031 16.7366C134.4 16.4541 133.698 16.378 133.022 16.5189C132.346 16.6598 131.73 17.0107 131.262 17.5222C130.953 17.8647 130.714 18.2664 130.561 18.7035C130.236 19.6686 130.236 20.7151 130.561 21.6803C130.714 22.1176 130.952 22.5193 131.262 22.8615C131.57 23.1973 131.945 23.4641 132.361 23.6445C132.778 23.825 133.228 23.9151 133.681 23.9089V23.8951Z" fill="#6527BE"/>
<path d="M140.743 25.2772V15.0888H144.965C145.523 15.0731 146.078 15.1722 146.596 15.3801C147.015 15.5528 147.367 15.8565 147.601 16.2464C147.839 16.6745 147.956 17.1598 147.941 17.6502C147.954 18.16 147.794 18.6591 147.485 19.0637C147.163 19.4636 146.719 19.7447 146.221 19.8631V19.5717C146.648 19.6577 147.052 19.8342 147.405 20.0895C147.735 20.3301 148.003 20.6467 148.187 21.0128C148.38 21.4061 148.476 21.8402 148.468 22.2788C148.476 22.719 148.401 23.1567 148.245 23.5683C148.103 23.9304 147.875 24.252 147.581 24.5055C147.27 24.7683 146.908 24.964 146.518 25.0804C146.06 25.2184 145.583 25.2848 145.104 25.2772H140.743ZM142.306 19.3098H144.875C145.146 19.3166 145.414 19.2565 145.657 19.1346C145.874 19.0259 146.059 18.8607 146.192 18.6562C146.323 18.4472 146.391 18.2044 146.387 17.9573C146.399 17.7675 146.365 17.5778 146.29 17.4034C146.215 17.229 146.101 17.0748 145.956 16.9532C145.593 16.6969 145.155 16.5733 144.713 16.6028H142.304L142.306 19.3098ZM142.306 23.7632H145.02C145.363 23.773 145.704 23.7141 146.024 23.59C146.283 23.4862 146.505 23.3057 146.661 23.0722C146.814 22.8268 146.892 22.5411 146.884 22.2512C146.891 21.9745 146.807 21.7031 146.645 21.4794C146.472 21.255 146.239 21.0855 145.973 20.9912C145.644 20.8722 145.297 20.8155 144.948 20.8238H142.304L142.306 23.7632Z" fill="#6527BE"/>
<path d="M149.525 25.2773L153.433 15.0888H155.023L158.907 25.2773H157.246L154.935 19.1346C154.906 19.0677 154.851 18.9023 154.769 18.6405C154.687 18.3786 154.593 18.0872 154.488 17.7683L154.199 16.8863C154.113 16.6205 154.054 16.4472 154.025 16.3705L154.359 16.3547C154.3 16.5201 154.23 16.7288 154.148 16.9808L153.888 17.7821C153.796 18.0636 153.708 18.3274 153.622 18.5696C153.536 18.8118 153.462 19.0224 153.405 19.1878L151.108 25.2713L149.525 25.2773ZM151.258 22.7454L151.844 21.2314H156.438L157.102 22.7454H151.258Z" fill="#6527BE"/>
<path d="M160.691 25.2773V15.0888H162.254V23.7633H166.992V25.2773H160.691Z" fill="#6527BE"/>
<path d="M114.124 39.9034C113.46 39.9111 112.802 39.7825 112.19 39.5254C111.608 39.2776 111.086 38.9078 110.658 38.4406C110.217 37.9574 109.875 37.3905 109.654 36.773C109.412 36.0969 109.293 35.3829 109.3 34.6644C109.297 33.9679 109.43 33.2776 109.691 32.6327C109.939 32.0195 110.299 31.459 110.754 30.9808C111.206 30.5003 111.751 30.1191 112.357 29.8613C112.962 29.6034 113.613 29.4745 114.27 29.4826C114.758 29.4823 115.243 29.558 115.708 29.707C116.16 29.8514 116.588 30.0624 116.978 30.3331C117.338 30.5803 117.653 30.888 117.91 31.2427L116.871 32.3354C116.613 32.0719 116.329 31.8352 116.025 31.6286C115.757 31.4469 115.466 31.3026 115.159 31.1994C114.872 31.1038 114.572 31.0546 114.27 31.0537C113.824 31.0505 113.381 31.1393 112.97 31.3147C112.559 31.4901 112.188 31.7483 111.879 32.0735C111.569 32.4038 111.327 32.7917 111.164 33.2154C110.988 33.6777 110.9 34.1693 110.904 34.6644C110.898 35.1778 110.984 35.688 111.158 36.1706C111.314 36.6019 111.557 36.9955 111.873 37.3262C112.184 37.6496 112.56 37.9009 112.977 38.0626C113.432 38.2366 113.915 38.3227 114.401 38.3165C115.038 38.3166 115.663 38.1402 116.207 37.8066C116.474 37.6434 116.721 37.4485 116.943 37.2258L117.725 38.5056C117.468 38.7949 117.162 39.0362 116.822 39.2183C116.421 39.4406 115.994 39.6094 115.55 39.7203C115.084 39.843 114.605 39.9045 114.124 39.9034Z" fill="#6527BE"/>
<path d="M124.061 39.9034C123.384 39.91 122.713 39.776 122.09 39.5096C121.501 39.2529 120.969 38.8793 120.527 38.411C120.074 37.9332 119.719 37.3689 119.485 36.7513C118.996 35.4032 118.996 33.9237 119.485 32.5755C119.719 31.958 120.074 31.3937 120.527 30.9159C120.969 30.4476 121.501 30.074 122.09 29.8173C123.353 29.2923 124.771 29.2923 126.034 29.8173C126.625 30.0747 127.157 30.4513 127.597 30.9237C128.05 31.4044 128.404 31.9704 128.639 32.5893C129.128 33.928 129.128 35.3988 128.639 36.7376C128.404 37.3564 128.05 37.9225 127.597 38.4031C127.157 38.8756 126.625 39.2522 126.034 39.5096C125.41 39.7762 124.739 39.9102 124.061 39.9034ZM124.061 38.3756C124.526 38.3811 124.987 38.2865 125.413 38.098C125.817 37.9173 126.179 37.6522 126.474 37.3203C126.779 36.9741 127.017 36.5734 127.175 36.139C127.511 35.1837 127.511 34.1412 127.175 33.1859C127.017 32.7515 126.779 32.3508 126.474 32.0046C126.179 31.6727 125.817 31.4076 125.413 31.2269C124.986 31.0437 124.526 30.9493 124.062 30.9493C123.598 30.9493 123.138 31.0437 122.711 31.2269C122.306 31.4075 121.942 31.6702 121.642 31.9987C121.332 32.3405 121.094 32.7424 120.943 33.18C120.615 34.1447 120.615 35.1921 120.943 36.1568C121.094 36.5944 121.332 36.9964 121.642 37.338C121.942 37.6665 122.306 37.9292 122.711 38.1098C123.137 38.294 123.597 38.3846 124.061 38.3756Z" fill="#6527BE"/>
<path d="M131.125 39.7577V29.5692H132.526L138.713 37.909L138.481 38.0409C138.444 37.7968 138.408 37.533 138.381 37.2534C138.354 36.9738 138.324 36.6628 138.301 36.3359C138.278 36.0091 138.258 35.6665 138.244 35.3023C138.231 34.9381 138.217 34.5581 138.207 34.1604C138.197 33.7627 138.194 33.3493 138.194 32.9221V29.5751H139.757V39.7636H138.322L132.243 31.729L132.401 31.5321C132.45 32.1227 132.491 32.6248 132.524 33.0382C132.557 33.4497 132.586 33.8001 132.61 34.0856C132.633 34.3711 132.651 34.6054 132.661 34.7845C132.67 34.9637 132.678 35.1113 132.682 35.2275C132.686 35.3437 132.682 35.446 132.682 35.5346V39.7695L131.125 39.7577Z" fill="#6527BE"/>
<path d="M145.698 39.9034C145.182 39.9082 144.669 39.8345 144.175 39.6848C143.715 39.5428 143.284 39.3188 142.903 39.0233C142.509 38.7112 142.166 38.34 141.885 37.9228L142.953 36.6864C143.426 37.3649 143.879 37.8355 144.311 38.098C144.781 38.3697 145.315 38.506 145.857 38.4917C146.197 38.4959 146.535 38.4365 146.853 38.3165C147.125 38.2193 147.369 38.054 147.56 37.8361C147.73 37.6436 147.822 37.3946 147.82 37.1372C147.822 36.9686 147.793 36.8011 147.734 36.643C147.675 36.4865 147.584 36.3443 147.467 36.2257C147.331 36.0865 147.176 35.9684 147.005 35.8752C146.796 35.7592 146.575 35.6642 146.347 35.5917C146.064 35.5007 145.775 35.4303 145.482 35.3811C145.015 35.2912 144.559 35.1492 144.124 34.9578C143.761 34.8026 143.43 34.581 143.147 34.3041C142.89 34.0517 142.69 33.7461 142.561 33.4083C142.428 33.0473 142.362 32.6651 142.365 32.2802C142.362 31.8853 142.454 31.4954 142.633 31.1442C142.813 30.7925 143.064 30.4826 143.37 30.2346C143.699 29.9718 144.073 29.7717 144.473 29.644C144.915 29.5014 145.377 29.4303 145.841 29.4333C146.324 29.4258 146.806 29.4922 147.269 29.6302C147.688 29.7584 148.08 29.9626 148.426 30.2327C148.765 30.504 149.049 30.8381 149.264 31.2171L148.166 32.3097C147.99 32.0098 147.771 31.7378 147.515 31.5025C147.283 31.2896 147.014 31.1214 146.722 31.0064C146.426 30.8943 146.112 30.8376 145.796 30.8391C145.462 30.8326 145.13 30.8922 144.819 31.0143C144.569 31.1183 144.351 31.2859 144.184 31.5006C144.025 31.7115 143.941 31.9701 143.946 32.2349C143.944 32.4281 143.984 32.6194 144.061 32.796C144.144 32.9717 144.266 33.126 144.417 33.2469C144.611 33.3967 144.827 33.5143 145.058 33.5954C145.376 33.7112 145.702 33.8014 146.034 33.8651C146.519 33.9671 146.992 34.1155 147.449 34.3081C147.829 34.468 148.184 34.6814 148.504 34.942C148.777 35.1643 149.001 35.442 149.16 35.7571C149.311 36.0594 149.388 36.3935 149.385 36.7316C149.399 37.3263 149.244 37.9126 148.938 38.4209C148.629 38.904 148.187 39.2858 147.666 39.5194C147.046 39.7911 146.374 39.9222 145.698 39.9034Z" fill="#6527BE"/>
<path d="M155.515 39.8443C154.785 39.857 154.063 39.6793 153.421 39.3285C152.817 38.9956 152.314 38.5019 151.969 37.9011C151.613 37.2752 151.43 36.5636 151.442 35.8418V29.5554H153.005V35.7118C152.998 36.1791 153.118 36.6394 153.353 37.0427C153.575 37.428 153.89 37.7508 154.269 37.9818C154.645 38.213 155.078 38.3337 155.519 38.3303C155.978 38.3361 156.43 38.2156 156.826 37.9818C157.211 37.7536 157.532 37.4304 157.758 37.0427C157.992 36.6392 158.112 36.1789 158.104 35.7118V29.5554H159.591V35.8418C159.603 36.5634 159.422 37.275 159.065 37.9011C158.72 38.5015 158.218 38.9951 157.614 39.3285C156.97 39.6797 156.247 39.8574 155.515 39.8443Z" fill="#6527BE"/>
<path d="M162.279 39.7577V29.5692H163.842V38.2437H168.58V39.7577H162.279Z" fill="#6527BE"/>
<path d="M171.638 39.7577V31.0832H168.801V29.5692H176.11V31.0832H173.197V39.7577H171.638Z" fill="#6527BE"/>
<path d="M176.26 39.7577L180.167 29.5692H181.756L185.642 39.7577H183.981L181.67 33.6151C181.64 33.5481 181.586 33.3828 181.504 33.1209C181.421 32.8591 181.328 32.5677 181.222 32.2468C181.117 31.9259 181.027 31.6345 180.933 31.3667C180.839 31.099 180.788 30.9277 180.759 30.8509L181.091 30.8351C181.035 31.0005 180.964 31.2092 180.882 31.4612L180.622 32.2625C180.531 32.544 180.443 32.8079 180.355 33.05L180.144 33.6663L177.848 39.7498L176.26 39.7577ZM177.993 37.2258L178.579 35.7118H183.17L183.834 37.2258H177.993Z" fill="#6527BE"/>
<path d="M187.424 39.7577V29.5692H188.825L195.006 37.909L194.776 38.0409C194.737 37.7968 194.703 37.533 194.674 37.2534C194.645 36.9738 194.619 36.6628 194.596 36.3359C194.572 36.0091 194.553 35.6665 194.537 35.3023C194.522 34.9381 194.512 34.5581 194.502 34.1604C194.492 33.7627 194.486 33.3493 194.486 32.9221V29.5751H196.049V39.7636H194.619L188.534 31.7231L188.692 31.5262C188.739 32.1168 188.78 32.6189 188.815 33.0323C188.848 33.4438 188.877 33.7942 188.901 34.0797C188.924 34.3652 188.942 34.5995 188.952 34.7786C188.961 34.9578 188.967 35.1054 188.973 35.2216C188.979 35.3378 188.973 35.4401 188.973 35.5287V39.7636L187.424 39.7577Z" fill="#6527BE"/>
<path d="M200.799 39.7577V31.0832H197.968V29.5692H205.277V31.0832H202.358V39.7577H200.799Z" fill="#6527BE"/>
<path d="M210.318 39.9034C209.802 39.9082 209.288 39.8345 208.794 39.6848C208.334 39.5428 207.903 39.3188 207.522 39.0233C207.128 38.7118 206.785 38.3405 206.504 37.9228L207.573 36.6864C208.043 37.3649 208.499 37.8355 208.94 38.098C209.41 38.3698 209.944 38.506 210.486 38.4917C210.826 38.4959 211.163 38.4365 211.482 38.3165C211.754 38.2193 211.998 38.054 212.189 37.8361C212.359 37.6436 212.451 37.3946 212.449 37.1372C212.451 36.9686 212.422 36.8011 212.363 36.6431C212.304 36.4855 212.213 36.3421 212.095 36.2217C211.96 36.0825 211.804 35.9644 211.634 35.8713C211.424 35.7556 211.204 35.6607 210.976 35.5878C210.693 35.4967 210.404 35.4263 210.11 35.3771C209.64 35.288 209.182 35.146 208.743 34.9538C208.38 34.7986 208.049 34.577 207.766 34.3002C207.508 34.0483 207.308 33.7425 207.18 33.4044C207.048 33.0434 206.981 32.6611 206.985 32.2763C206.981 31.8816 207.072 31.492 207.25 31.1403C207.431 30.7894 207.682 30.4798 207.987 30.2307C208.317 29.9683 208.692 29.7682 209.093 29.6401C209.535 29.4974 209.996 29.4263 210.46 29.4294C210.944 29.422 211.426 29.4884 211.89 29.6263C212.309 29.7545 212.701 29.9586 213.047 30.2287C213.386 30.4996 213.67 30.8339 213.883 31.2131L212.787 32.3058C212.622 32.009 212.415 31.7378 212.174 31.5006C211.941 31.287 211.672 31.1188 211.378 31.0044C210.763 30.776 210.087 30.776 209.472 31.0044C209.213 31.1051 208.987 31.2737 208.815 31.4927C208.656 31.7037 208.572 31.9623 208.577 32.2271C208.575 32.4202 208.614 32.6115 208.692 32.7882C208.775 32.9634 208.896 33.1175 209.046 33.239C209.241 33.3883 209.457 33.5059 209.688 33.5875C210.006 33.7036 210.333 33.7938 210.665 33.8572C211.15 33.9593 211.623 34.1076 212.08 34.3002C212.459 34.4601 212.815 34.6736 213.135 34.9341C213.408 35.1564 213.632 35.4341 213.791 35.7492C213.942 36.0516 214.019 36.3856 214.016 36.7238C214.03 37.3184 213.875 37.9047 213.569 38.413C213.26 38.8961 212.818 39.2779 212.297 39.5116C211.674 39.7876 210.998 39.9214 210.318 39.9034Z" fill="#6527BE"/>
</g>
<defs>
<clipPath id="clip0_0_23879">
<rect width="214" height="41" fill="white"/>
</clipPath>
</defs>
</svg>
